<svg xmlns="http://www.w3.org/2000/svg" width="64" height="64" fill="none"><path fill="#000" d="M0 22.977v9.34l11.962 11.172L0 54.66V64h10.049L32 43.489 10.049 22.977H0Zm27.762 7.335h8.477l17.713-16.554V4.42H43.913L32 15.542 20.088 4.419H10.05v9.34l17.714 16.553ZM10.049 0H.109v13.698l9.94-9.28V0ZM64 22.977H53.951L32 43.49 53.951 64H64v-9.339L52.038 43.49 64 32.316v-9.339Z"/><path fill="#000" d="M63.89 0h-9.94v4.419l9.94 9.279V0ZM19.918 63.999h24.166L32 52.716 19.918 64ZM38.853 0H25.148L32 6.403 38.853 0Z"/></svg>