<svg xmlns="http://www.w3.org/2000/svg" width="933" height="3039" fill="none"><g clip-path="url(#a)"><mask id="b" width="933" height="3039" x="0" y="0" maskUnits="userSpaceOnUse" style="mask-type:luminance"><path fill="#fff" d="M933 0H0v3039h933V0z"/></mask><g mask="url(#b)"><path fill="#000" fill-rule="evenodd" d="M15 143H5c-2.5-.1-5 4.5-5 23v2745.5c0 7 2.5 18.5 11.5 18.5l6.5-2.5a3.5 3.5 0 0 1-.867.04c.13 0 .256-.02.375-.04l910-401.5c4.4-2.4 5.167-6.33 5-8l1.993-1980c-.937-7.021-5.67-8.346-7.638-8.897a15.048 15.048 0 0 1-.362-.103l-905-384c-3-1.445-5.308-2.025-7.084-1.884.188-.044.383-.083.583-.116z" clip-rule="evenodd"/></g></g><defs><clipPath id="a"><path fill="#fff" d="M0 0h933v3039H0z"/></clipPath></defs></svg>