<svg xmlns="http://www.w3.org/2000/svg" width="48" height="48" fill="none"><path fill="#FFF" d="M12 24v1H0v-2h12v1Zm1.607 6 .5.866-10.392 6-.5-.866-.5-.866 10.392-6 .5.866ZM18 34.393l.866.5-6 10.392-.866-.5-.866-.5 6-10.392.866.5ZM24 36h1v12h-2V36h1Zm6-1.607.866-.5 6 10.392-.866.5-.866.5-6-10.392.866-.5ZM34.393 30l.5-.866 10.392 6-.5.866-.5.866-10.392-6 .5-.866ZM36 24v-1h12v2H36v-1Zm-1.607-6-.5-.866 10.392-6 .5.866.5.866-10.392 6-.5-.866ZM30 13.607l-.866-.5 6-10.392.866.5.866.5-6 10.392-.866-.5ZM24 12h-1V0h2v12h-1Zm-6 1.607-.866.5-6-10.392.866-.5.866-.5 6 10.392-.866.5ZM13.607 18l-.5.866-10.392-6 .5-.866.5-.866 5.196 3 5.196 3-.5.866Z"/></svg>